# xmcd
#
# Track frame offsets: 
#        150
#        15330
#        36900
#        52384
#        65338
#        80518
#        97882
#        109552
#        121427
#        141887
#        160043
#        170562
#
# Disc length: 2332 seconds
#
# Revision: 0
# Processed by: cddbd v1.5.2PL0 Copyright (c) Steve Scherf et al.
# Submitted via: ExactAudioCopy v0.99pb3
#
DISCID=99091a0c
DTITLE=Chris Cairns - Hello Blue
DYEAR=2007
DGENRE=Country
TTITLE0=hold me my darlin'
TTITLE1=cannonball run
TTITLE2=go go gadget boogie
TTITLE3=hello blue
TTITLE4=mississippi sawyer
TTITLE5=one lonely candle
TTITLE6=baby girl
TTITLE7=another rainy day
TTITLE8=alabama clay
TTITLE9=drums of war
TTITLE10=groundspeed
TTITLE11=miss my mom
EXTD=
EXTT0=
EXTT1=
EXTT2=
EXTT3=
EXTT4=
EXTT5=
EXTT6=
EXTT7=
EXTT8=
EXTT9=
EXTT10=
EXTT11=
PLAYORDER=
